G04 #@! TF.FileFunction,Profile,NP*
%FSLAX46Y46*%
G04 Gerber Fmt 4.6, Leading zero omitted, Abs format (unit mm)*
G04 Created by KiCad (PCBNEW 4.0.6) date Sunday, 25 February 2018 'PMt' 23:13:54*
%MOMM*%
%LPD*%
G01*
G04 APERTURE LIST*
%ADD10C,0.100000*%
G04 APERTURE END LIST*
D10*
X109266401Y-53600764D02*
X109059583Y-53609035D01*
X109473301Y-53595764D02*
X109266401Y-53600764D01*
X109680253Y-53593764D02*
X109473301Y-53595764D01*
X109887219Y-53594195D02*
X109680253Y-53593764D01*
X110094164Y-53597195D02*
X109887219Y-53594195D01*
X110301048Y-53603195D02*
X110094164Y-53597195D01*
X110507836Y-53612195D02*
X110301048Y-53603195D01*
X110714489Y-53623595D02*
X110507836Y-53612195D01*
X110920972Y-53637795D02*
X110714489Y-53623595D01*
X111127245Y-53654695D02*
X110920972Y-53637795D01*
X111333273Y-53674395D02*
X111127245Y-53654695D01*
X111539017Y-53696795D02*
X111333273Y-53674395D01*
X111744441Y-53721995D02*
X111539017Y-53696795D01*
X111949507Y-53749995D02*
X111744441Y-53721995D01*
X112154179Y-53780695D02*
X111949507Y-53749995D01*
X112358418Y-53814195D02*
X112154179Y-53780695D01*
X113881995Y-54078865D02*
X112358418Y-53814195D01*
X115294619Y-54508965D02*
X113881995Y-54078865D01*
X116601657Y-55091005D02*
X115294619Y-54508965D01*
X117808476Y-55811495D02*
X116601657Y-55091005D01*
X118920456Y-56656953D02*
X117808476Y-55811495D01*
X119942936Y-57613883D02*
X118920456Y-56656953D01*
X120881299Y-58668813D02*
X119942936Y-57613883D01*
X121740910Y-59808253D02*
X120881299Y-58668813D01*
X122527137Y-61018693D02*
X121740910Y-59808253D01*
X123245349Y-62286673D02*
X122527137Y-61018693D01*
X123900902Y-63598698D02*
X123245349Y-62286673D01*
X124499178Y-64941268D02*
X123900902Y-63598698D01*
X125045537Y-66300918D02*
X124499178Y-64941268D01*
X125545346Y-67664138D02*
X125045537Y-66300918D01*
X126003974Y-69017458D02*
X125545346Y-67664138D01*
X126426786Y-70347388D02*
X126003974Y-69017458D01*
X127244643Y-71338418D02*
X126426786Y-70347388D01*
X128033530Y-72353518D02*
X127244643Y-71338418D01*
X128791923Y-73392048D02*
X128033530Y-72353518D01*
X129518292Y-74453328D02*
X128791923Y-73392048D01*
X130211109Y-75536718D02*
X129518292Y-74453328D01*
X130868847Y-76641558D02*
X130211109Y-75536718D01*
X131489977Y-77767178D02*
X130868847Y-76641558D01*
X132072974Y-78912918D02*
X131489977Y-77767178D01*
X132616303Y-80078128D02*
X132072974Y-78912918D01*
X133118443Y-81262149D02*
X132616303Y-80078128D01*
X133577863Y-82464318D02*
X133118443Y-81262149D01*
X133993036Y-83683978D02*
X133577863Y-82464318D01*
X134362432Y-84920468D02*
X133993036Y-83683978D01*
X134684528Y-86173138D02*
X134362432Y-84920468D01*
X134957789Y-87441318D02*
X134684528Y-86173138D01*
X135180693Y-88724349D02*
X134957789Y-87441318D01*
X135940079Y-91071729D02*
X135180693Y-88724349D01*
X136572562Y-93437258D02*
X135940079Y-91071729D01*
X137088320Y-95819069D02*
X136572562Y-93437258D01*
X137497535Y-98215328D02*
X137088320Y-95819069D01*
X137810392Y-100624169D02*
X137497535Y-98215328D01*
X138037066Y-103043757D02*
X137810392Y-100624169D01*
X138187741Y-105472238D02*
X138037066Y-103043757D01*
X138272601Y-107907759D02*
X138187741Y-105472238D01*
X138301821Y-110348480D02*
X138272601Y-107907759D01*
X138285581Y-112792539D02*
X138301821Y-110348480D01*
X138234071Y-115238099D02*
X138285581Y-112792539D01*
X138157471Y-117683299D02*
X138234071Y-115238099D01*
X138065951Y-120126289D02*
X138157471Y-117683299D01*
X137969701Y-122565229D02*
X138065951Y-120126289D01*
X137878901Y-124998269D02*
X137969701Y-122565229D01*
X137803731Y-127423558D02*
X137878901Y-124998269D01*
X137611233Y-128118518D02*
X137803731Y-127423558D01*
X137487541Y-128805128D02*
X137611233Y-128118518D01*
X137425581Y-129484448D02*
X137487541Y-128805128D01*
X137418281Y-130157530D02*
X137425581Y-129484448D01*
X137458591Y-130825428D02*
X137418281Y-130157530D01*
X137539441Y-131489209D02*
X137458591Y-130825428D01*
X137653757Y-132149919D02*
X137539441Y-131489209D01*
X137794472Y-132808618D02*
X137653757Y-132149919D01*
X137954519Y-133466369D02*
X137794472Y-132808618D01*
X138126829Y-134124208D02*
X137954519Y-133466369D01*
X138304338Y-134783208D02*
X138126829Y-134124208D01*
X138479974Y-135444429D02*
X138304338Y-134783208D01*
X138646672Y-136108908D02*
X138479974Y-135444429D01*
X138797362Y-136777730D02*
X138646672Y-136108908D01*
X138924982Y-137451918D02*
X138797362Y-136777730D01*
X139022462Y-138132548D02*
X138924982Y-137451918D01*
X138884162Y-138638309D02*
X139022462Y-138132548D01*
X138693254Y-139136329D02*
X138884162Y-138638309D01*
X138453616Y-139622869D02*
X138693254Y-139136329D01*
X138169122Y-140094150D02*
X138453616Y-139622869D01*
X137843648Y-140546410D02*
X138169122Y-140094150D01*
X137481068Y-140975900D02*
X137843648Y-140546410D01*
X137085254Y-141378860D02*
X137481068Y-140975900D01*
X136660090Y-141751530D02*
X137085254Y-141378860D01*
X136209441Y-142090150D02*
X136660090Y-141751530D01*
X135737189Y-142390950D02*
X136209441Y-142090150D01*
X135247210Y-142650180D02*
X135737189Y-142390950D01*
X134743374Y-142864070D02*
X135247210Y-142650180D01*
X134229559Y-143028880D02*
X134743374Y-142864070D01*
X133709639Y-143140830D02*
X134229559Y-143028880D01*
X133187492Y-143196130D02*
X133709639Y-143140830D01*
X132666993Y-143191130D02*
X133187492Y-143196130D01*
X132526174Y-143635350D02*
X132666993Y-143191130D01*
X132417433Y-144136710D02*
X132526174Y-143635350D01*
X132338503Y-144688550D02*
X132417433Y-144136710D01*
X132287113Y-145284200D02*
X132338503Y-144688550D01*
X132260973Y-145917010D02*
X132287113Y-145284200D01*
X132257873Y-146580300D02*
X132260973Y-145917010D01*
X132275473Y-147267420D02*
X132257873Y-146580300D01*
X132311533Y-147971690D02*
X132275473Y-147267420D01*
X132363783Y-148686450D02*
X132311533Y-147971690D01*
X132429943Y-149405030D02*
X132363783Y-148686450D01*
X132507753Y-150120780D02*
X132429943Y-149405030D01*
X132594943Y-150827030D02*
X132507753Y-150120780D01*
X132689243Y-151517110D02*
X132594943Y-150827030D01*
X132788373Y-152184360D02*
X132689243Y-151517110D01*
X132890073Y-152822110D02*
X132788373Y-152184360D01*
X132992070Y-153423710D02*
X132890073Y-152822110D01*
X133060750Y-154346590D02*
X132992070Y-153423710D01*
X133194409Y-155297400D02*
X133060750Y-154346590D01*
X133377384Y-156270970D02*
X133194409Y-155297400D01*
X133594017Y-157262120D02*
X133377384Y-156270970D01*
X133828644Y-158265700D02*
X133594017Y-157262120D01*
X134065605Y-159276520D02*
X133828644Y-158265700D01*
X134289239Y-160289430D02*
X134065605Y-159276520D01*
X134483885Y-161299250D02*
X134289239Y-160289430D01*
X134633883Y-162300800D02*
X134483885Y-161299250D01*
X134723573Y-163288930D02*
X134633883Y-162300800D01*
X134737303Y-164258470D02*
X134723573Y-163288930D01*
X134659393Y-165204230D02*
X134737303Y-164258470D01*
X134474188Y-166121060D02*
X134659393Y-165204230D01*
X134166030Y-167003780D02*
X134474188Y-166121060D01*
X133719260Y-167847220D02*
X134166030Y-167003780D01*
X133118217Y-168646220D02*
X133719260Y-167847220D01*
X132590212Y-168828050D02*
X133118217Y-168646220D01*
X132028329Y-169017450D02*
X132590212Y-168828050D01*
X131438980Y-169206700D02*
X132028329Y-169017450D01*
X130828573Y-169388100D02*
X131438980Y-169206700D01*
X130203519Y-169553920D02*
X130828573Y-169388100D01*
X129570226Y-169696460D02*
X130203519Y-169553920D01*
X128935104Y-169808000D02*
X129570226Y-169696460D01*
X128304565Y-169880800D02*
X128935104Y-169808000D01*
X127685016Y-169907200D02*
X128304565Y-169880800D01*
X127082872Y-169879500D02*
X127685016Y-169907200D01*
X126504538Y-169789900D02*
X127082872Y-169879500D01*
X125956425Y-169630760D02*
X126504538Y-169789900D01*
X125444943Y-169394330D02*
X125956425Y-169630760D01*
X124976503Y-169072910D02*
X125444943Y-169394330D01*
X124557514Y-168658790D02*
X124976503Y-169072910D01*
X124194387Y-168144250D02*
X124557514Y-168658790D01*
X123351689Y-167910990D02*
X124194387Y-168144250D01*
X122579651Y-167605150D02*
X123351689Y-167910990D01*
X121876423Y-167231260D02*
X122579651Y-167605150D01*
X121240153Y-166793850D02*
X121876423Y-167231260D01*
X120668994Y-166297450D02*
X121240153Y-166793850D01*
X120161095Y-165746600D02*
X120668994Y-166297450D01*
X119714608Y-165145830D02*
X120161095Y-165746600D01*
X119327681Y-164499670D02*
X119714608Y-165145830D01*
X118998468Y-163812650D02*
X119327681Y-164499670D01*
X118725116Y-163089310D02*
X118998468Y-163812650D01*
X118505777Y-162334180D02*
X118725116Y-163089310D01*
X118338601Y-161551790D02*
X118505777Y-162334180D01*
X118221739Y-160746680D02*
X118338601Y-161551790D01*
X118153339Y-159923380D02*
X118221739Y-160746680D01*
X118131559Y-159086410D02*
X118153339Y-159923380D01*
X118154539Y-158240320D02*
X118131559Y-159086410D01*
X117838983Y-156155470D02*
X118154539Y-158240320D01*
X117587072Y-154044520D02*
X117838983Y-156155470D01*
X117382240Y-151913290D02*
X117587072Y-154044520D01*
X117207921Y-149767620D02*
X117382240Y-151913290D01*
X117047547Y-147613330D02*
X117207921Y-149767620D01*
X116884553Y-145456250D02*
X117047547Y-147613330D01*
X116702372Y-143302210D02*
X116884553Y-145456250D01*
X116484438Y-141157010D02*
X116702372Y-143302210D01*
X116214184Y-139026496D02*
X116484438Y-141157010D01*
X115875043Y-136916483D02*
X116214184Y-139026496D01*
X115450450Y-134832815D02*
X115875043Y-136916483D01*
X114923838Y-132781305D02*
X115450450Y-134832815D01*
X114278641Y-130767776D02*
X114923838Y-132781305D01*
X113498291Y-128798064D02*
X114278641Y-130767776D01*
X112566223Y-126877993D02*
X113498291Y-128798064D01*
X111465870Y-125013385D02*
X112566223Y-126877993D01*
X111180927Y-124667574D02*
X111465870Y-125013385D01*
X110954496Y-124297025D02*
X111180927Y-124667574D01*
X110778766Y-123905966D02*
X110954496Y-124297025D01*
X110645926Y-123498645D02*
X110778766Y-123905966D01*
X110548166Y-123079286D02*
X110645926Y-123498645D01*
X110477666Y-122652145D02*
X110548166Y-123079286D01*
X110426626Y-122221446D02*
X110477666Y-122652145D01*
X110387226Y-121791434D02*
X110426626Y-122221446D01*
X110351656Y-121366333D02*
X110387226Y-121791434D01*
X110312106Y-120950403D02*
X110351656Y-121366333D01*
X110260766Y-120547863D02*
X110312106Y-120950403D01*
X110189816Y-120162963D02*
X110260766Y-120547863D01*
X110091456Y-119799934D02*
X110189816Y-120162963D01*
X109957867Y-119463024D02*
X110091456Y-119799934D01*
X109781239Y-119156454D02*
X109957867Y-119463024D01*
X109553761Y-118884473D02*
X109781239Y-119156454D01*
X108857763Y-119228545D02*
X109553761Y-118884473D01*
X108150909Y-119411116D02*
X108857763Y-119228545D01*
X107444882Y-119445016D02*
X108150909Y-119411116D01*
X106751364Y-119343016D02*
X107444882Y-119445016D01*
X106082038Y-119117927D02*
X106751364Y-119343016D01*
X105448586Y-118782576D02*
X106082038Y-119117927D01*
X104862691Y-118349757D02*
X105448586Y-118782576D01*
X104336035Y-117832277D02*
X104862691Y-118349757D01*
X103880300Y-117242936D02*
X104336035Y-117832277D01*
X103507168Y-116594546D02*
X103880300Y-117242936D01*
X103228323Y-115899927D02*
X103507168Y-116594546D01*
X103055447Y-115171865D02*
X103228323Y-115899927D01*
X103000217Y-114423166D02*
X103055447Y-115171865D01*
X103074327Y-113666656D02*
X103000217Y-114423166D01*
X103289451Y-112915115D02*
X103074327Y-113666656D01*
X103657273Y-112181375D02*
X103289451Y-112915115D01*
X103246103Y-111196485D02*
X103657273Y-112181375D01*
X102849071Y-110204377D02*
X103246103Y-111196485D01*
X102465861Y-109205387D02*
X102849071Y-110204377D01*
X102096160Y-108199856D02*
X102465861Y-109205387D01*
X101739650Y-107188127D02*
X102096160Y-108199856D01*
X101396017Y-106170526D02*
X101739650Y-107188127D01*
X101064946Y-105147396D02*
X101396017Y-106170526D01*
X100746121Y-104119087D02*
X101064946Y-105147396D01*
X100439227Y-103085916D02*
X100746121Y-104119087D01*
X100143949Y-102048236D02*
X100439227Y-103085916D01*
X99859970Y-101006386D02*
X100143949Y-102048236D01*
X99586976Y-99960697D02*
X99859970Y-101006386D01*
X99324652Y-98911505D02*
X99586976Y-99960697D01*
X99072682Y-97859157D02*
X99324652Y-98911505D01*
X98830751Y-96803985D02*
X99072682Y-97859157D01*
X98598543Y-95746326D02*
X98830751Y-96803985D01*
X98494161Y-95255527D02*
X98598543Y-95746326D01*
X98391767Y-94764296D02*
X98494161Y-95255527D01*
X98291330Y-94272677D02*
X98391767Y-94764296D01*
X98192820Y-93780687D02*
X98291330Y-94272677D01*
X98096200Y-93288376D02*
X98192820Y-93780687D01*
X98001450Y-92795775D02*
X98096200Y-93288376D01*
X97908530Y-92302917D02*
X98001450Y-92795775D01*
X97817410Y-91809827D02*
X97908530Y-92302917D01*
X97728060Y-91316556D02*
X97817410Y-91809827D01*
X97640440Y-90823116D02*
X97728060Y-91316556D01*
X97554530Y-90329557D02*
X97640440Y-90823116D01*
X97470290Y-89835897D02*
X97554530Y-90329557D01*
X97387700Y-89342195D02*
X97470290Y-89835897D01*
X97306720Y-88848456D02*
X97387700Y-89342195D01*
X97227320Y-88354736D02*
X97306720Y-88848456D01*
X97149470Y-87861055D02*
X97227320Y-88354736D01*
X96808950Y-86942186D02*
X97149470Y-87861055D01*
X96518278Y-86009226D02*
X96808950Y-86942186D01*
X96279930Y-85065616D02*
X96518278Y-86009226D01*
X96096382Y-84114785D02*
X96279930Y-85065616D01*
X95970110Y-83160177D02*
X96096382Y-84114785D01*
X95903590Y-82205245D02*
X95970110Y-83160177D01*
X95899290Y-81253407D02*
X95903590Y-82205245D01*
X95959700Y-80308127D02*
X95899290Y-81253407D01*
X96087289Y-79372826D02*
X95959700Y-80308127D01*
X96284532Y-78450946D02*
X96087289Y-79372826D01*
X96553906Y-77545936D02*
X96284532Y-78450946D01*
X96897886Y-76661236D02*
X96553906Y-77545936D01*
X97318948Y-75800276D02*
X96897886Y-76661236D01*
X97819568Y-74966496D02*
X97318948Y-75800276D01*
X98402222Y-74163346D02*
X97819568Y-74966496D01*
X99069386Y-73394266D02*
X98402222Y-74163346D01*
X99506076Y-72796136D02*
X99069386Y-73394266D01*
X99801285Y-72256576D02*
X99506076Y-72796136D01*
X99966362Y-71772296D02*
X99801285Y-72256576D01*
X100012652Y-71340036D02*
X99966362Y-71772296D01*
X99951512Y-70956536D02*
X100012652Y-71340036D01*
X99794294Y-70618516D02*
X99951512Y-70956536D01*
X99552345Y-70322726D02*
X99794294Y-70618516D01*
X99237014Y-70065876D02*
X99552345Y-70322726D01*
X98859650Y-69844716D02*
X99237014Y-70065876D01*
X98431605Y-69655966D02*
X98859650Y-69844716D01*
X97964228Y-69496366D02*
X98431605Y-69655966D01*
X97468869Y-69362646D02*
X97964228Y-69496366D01*
X96956878Y-69251546D02*
X97468869Y-69362646D01*
X96439605Y-69159746D02*
X96956878Y-69251546D01*
X95928400Y-69084046D02*
X96439605Y-69159746D01*
X95434612Y-69021146D02*
X95928400Y-69084046D01*
X94545717Y-68811416D02*
X95434612Y-69021146D01*
X93830638Y-68489846D02*
X94545717Y-68811416D01*
X93279509Y-68071966D02*
X93830638Y-68489846D01*
X92882467Y-67573316D02*
X93279509Y-68071966D01*
X92629646Y-67009426D02*
X92882467Y-67573316D01*
X92511182Y-66395836D02*
X92629646Y-67009426D01*
X92517182Y-65748056D02*
X92511182Y-66395836D01*
X92637837Y-65081646D02*
X92517182Y-65748056D01*
X92863256Y-64412116D02*
X92637837Y-65081646D01*
X93183573Y-63755006D02*
X92863256Y-64412116D01*
X93588923Y-63125856D02*
X93183573Y-63755006D01*
X94069442Y-62540185D02*
X93588923Y-63125856D01*
X94615265Y-62013536D02*
X94069442Y-62540185D01*
X95216527Y-61561435D02*
X94615265Y-62013536D01*
X95863364Y-61199425D02*
X95216527Y-61561435D01*
X96545911Y-60943026D02*
X95863364Y-61199425D01*
X97127527Y-60225126D02*
X96545911Y-60943026D01*
X97733729Y-59510355D02*
X97127527Y-60225126D01*
X98364975Y-58805435D02*
X97733729Y-59510355D01*
X99021727Y-58117135D02*
X98364975Y-58805435D01*
X99704443Y-57452185D02*
X99021727Y-58117135D01*
X100413585Y-56817345D02*
X99704443Y-57452185D01*
X101149612Y-56219365D02*
X100413585Y-56817345D01*
X101912984Y-55664975D02*
X101149612Y-56219365D01*
X102704161Y-55160935D02*
X101912984Y-55664975D01*
X103523603Y-54713975D02*
X102704161Y-55160935D01*
X104371770Y-54330865D02*
X103523603Y-54713975D01*
X105249123Y-54018345D02*
X104371770Y-54330865D01*
X106156120Y-53783145D02*
X105249123Y-54018345D01*
X107093223Y-53632035D02*
X106156120Y-53783145D01*
X108060890Y-53571735D02*
X107093223Y-53632035D01*
X109059583Y-53609035D02*
X108060890Y-53571735D01*
M02*
